<svg height="5038" width="720" xmlns="http://www.w3.org/2000/svg">
<rect height="5038" fill="#555" width="720"></rect>
<text fill="#7f7" font-family="Courier New" font-size="12" xml:space="preserve">
<tspan x="10" y="26">37 megabytes installed</tspan>
<tspan x="10" y="42"></tspan>
<tspan x="10" y="58">node_modules</tspan>
<tspan x="10" y="74">└─┬ tap@10.3.2 </tspan>
<tspan x="10" y="90">  ├── bind-obj-methods@1.0.0 </tspan>
<tspan x="10" y="106">  ├── bluebird@3.5.0 </tspan>
<tspan x="10" y="122">  ├── clean-yaml-object@0.1.0 </tspan>
<tspan x="10" y="138">  ├── color-support@1.1.2 </tspan>
<tspan x="10" y="154">  ├─┬ coveralls@2.13.0 </tspan>
<tspan x="10" y="170">  │ ├─┬ js-yaml@3.6.1 </tspan>
<tspan x="10" y="186">  │ │ └── esprima@2.7.3 </tspan>
<tspan x="10" y="202">  │ ├── lcov-parse@0.0.10 </tspan>
<tspan x="10" y="218">  │ ├── log-driver@1.2.5 </tspan>
<tspan x="10" y="234">  │ ├── minimist@1.2.0 </tspan>
<tspan x="10" y="250">  │ └─┬ request@2.79.0 </tspan>
<tspan x="10" y="266">  │   ├── aws-sign2@0.6.0 </tspan>
<tspan x="10" y="282">  │   ├── aws4@1.6.0 </tspan>
<tspan x="10" y="298">  │   ├── caseless@0.11.0 </tspan>
<tspan x="10" y="314">  │   ├─┬ combined-stream@1.0.5 </tspan>
<tspan x="10" y="330">  │   │ └── delayed-stream@1.0.0 </tspan>
<tspan x="10" y="346">  │   ├── extend@3.0.0 </tspan>
<tspan x="10" y="362">  │   ├── forever-agent@0.6.1 </tspan>
<tspan x="10" y="378">  │   ├─┬ form-data@2.1.4 </tspan>
<tspan x="10" y="394">  │   │ └── asynckit@0.4.0 </tspan>
<tspan x="10" y="410">  │   ├─┬ har-validator@2.0.6 </tspan>
<tspan x="10" y="426">  │   │ ├─┬ chalk@1.1.3 </tspan>
<tspan x="10" y="442">  │   │ │ ├── ansi-styles@2.2.1 </tspan>
<tspan x="10" y="458">  │   │ │ ├── has-ansi@2.0.0 </tspan>
<tspan x="10" y="474">  │   │ │ └── supports-color@2.0.0 </tspan>
<tspan x="10" y="490">  │   │ ├─┬ commander@2.9.0 </tspan>
<tspan x="10" y="506">  │   │ │ └── graceful-readlink@1.0.1 </tspan>
<tspan x="10" y="522">  │   │ ├─┬ is-my-json-valid@2.16.0 </tspan>
<tspan x="10" y="538">  │   │ │ ├── generate-function@2.0.0 </tspan>
<tspan x="10" y="554">  │   │ │ ├─┬ generate-object-property@1.2.0 </tspan>
<tspan x="10" y="570">  │   │ │ │ └── is-property@1.0.2 </tspan>
<tspan x="10" y="586">  │   │ │ ├── jsonpointer@4.0.1 </tspan>
<tspan x="10" y="602">  │   │ │ └── xtend@4.0.1 </tspan>
<tspan x="10" y="618">  │   │ └─┬ pinkie-promise@2.0.1 </tspan>
<tspan x="10" y="634">  │   │   └── pinkie@2.0.4 </tspan>
<tspan x="10" y="650">  │   ├─┬ hawk@3.1.3 </tspan>
<tspan x="10" y="666">  │   │ ├── boom@2.10.1 </tspan>
<tspan x="10" y="682">  │   │ ├── cryptiles@2.0.5 </tspan>
<tspan x="10" y="698">  │   │ ├── hoek@2.16.3 </tspan>
<tspan x="10" y="714">  │   │ └── sntp@1.0.9 </tspan>
<tspan x="10" y="730">  │   ├─┬ http-signature@1.1.1 </tspan>
<tspan x="10" y="746">  │   │ ├── assert-plus@0.2.0 </tspan>
<tspan x="10" y="762">  │   │ ├─┬ jsprim@1.4.0 </tspan>
<tspan x="10" y="778">  │   │ │ ├── assert-plus@1.0.0 </tspan>
<tspan x="10" y="794">  │   │ │ ├── extsprintf@1.0.2 </tspan>
<tspan x="10" y="810">  │   │ │ ├── json-schema@0.2.3 </tspan>
<tspan x="10" y="826">  │   │ │ └── verror@1.3.6 </tspan>
<tspan x="10" y="842">  │   │ └─┬ sshpk@1.13.0 </tspan>
<tspan x="10" y="858">  │   │   ├── asn1@0.2.3 </tspan>
<tspan x="10" y="874">  │   │   ├── assert-plus@1.0.0 </tspan>
<tspan x="10" y="890">  │   │   ├── bcrypt-pbkdf@1.0.1 </tspan>
<tspan x="10" y="906">  │   │   ├─┬ dashdash@1.14.1 </tspan>
<tspan x="10" y="922">  │   │   │ └── assert-plus@1.0.0 </tspan>
<tspan x="10" y="938">  │   │   ├── ecc-jsbn@0.1.1 </tspan>
<tspan x="10" y="954">  │   │   ├─┬ getpass@0.1.6 </tspan>
<tspan x="10" y="970">  │   │   │ └── assert-plus@1.0.0 </tspan>
<tspan x="10" y="986">  │   │   ├── jodid25519@1.0.2 </tspan>
<tspan x="10" y="1002">  │   │   ├── jsbn@0.1.1 </tspan>
<tspan x="10" y="1018">  │   │   └── tweetnacl@0.14.5 </tspan>
<tspan x="10" y="1034">  │   ├── is-typedarray@1.0.0 </tspan>
<tspan x="10" y="1050">  │   ├── isstream@0.1.2 </tspan>
<tspan x="10" y="1066">  │   ├── json-stringify-safe@5.0.1 </tspan>
<tspan x="10" y="1082">  │   ├─┬ mime-types@2.1.15 </tspan>
<tspan x="10" y="1098">  │   │ └── mime-db@1.27.0 </tspan>
<tspan x="10" y="1114">  │   ├── oauth-sign@0.8.2 </tspan>
<tspan x="10" y="1130">  │   ├── qs@6.3.2 </tspan>
<tspan x="10" y="1146">  │   ├── stringstream@0.0.5 </tspan>
<tspan x="10" y="1162">  │   ├── tough-cookie@2.3.2 </tspan>
<tspan x="10" y="1178">  │   ├── tunnel-agent@0.4.3 </tspan>
<tspan x="10" y="1194">  │   └── uuid@3.0.1 </tspan>
<tspan x="10" y="1210">  ├── deeper@2.1.0 </tspan>
<tspan x="10" y="1226">  ├─┬ foreground-child@1.5.6 </tspan>
<tspan x="10" y="1242">  │ └─┬ cross-spawn@4.0.2 </tspan>
<tspan x="10" y="1258">  │   ├─┬ lru-cache@4.0.2 </tspan>
<tspan x="10" y="1274">  │   │ ├── pseudomap@1.0.2 </tspan>
<tspan x="10" y="1290">  │   │ └── yallist@2.1.2 </tspan>
<tspan x="10" y="1306">  │   └─┬ which@1.2.14 </tspan>
<tspan x="10" y="1322">  │     └── isexe@2.0.0 </tspan>
<tspan x="10" y="1338">  ├── fs-exists-cached@1.0.0 </tspan>
<tspan x="10" y="1354">  ├── function-loop@1.0.1 </tspan>
<tspan x="10" y="1370">  ├─┬ glob@7.1.1 </tspan>
<tspan x="10" y="1386">  │ ├── fs.realpath@1.0.0 </tspan>
<tspan x="10" y="1402">  │ ├─┬ inflight@1.0.6 </tspan>
<tspan x="10" y="1418">  │ │ └── wrappy@1.0.2 </tspan>
<tspan x="10" y="1434">  │ ├── inherits@2.0.3 </tspan>
<tspan x="10" y="1450">  │ ├─┬ minimatch@3.0.3 </tspan>
<tspan x="10" y="1466">  │ │ └─┬ brace-expansion@1.1.7 </tspan>
<tspan x="10" y="1482">  │ │   ├── balanced-match@0.4.2 </tspan>
<tspan x="10" y="1498">  │ │   └── concat-map@0.0.1 </tspan>
<tspan x="10" y="1514">  │ ├── once@1.4.0 </tspan>
<tspan x="10" y="1530">  │ └── path-is-absolute@1.0.1 </tspan>
<tspan x="10" y="1546">  ├── isexe@1.1.2 </tspan>
<tspan x="10" y="1562">  ├─┬ js-yaml@3.8.3 </tspan>
<tspan x="10" y="1578">  │ ├─┬ argparse@1.0.9 </tspan>
<tspan x="10" y="1594">  │ │ └── sprintf-js@1.0.3 </tspan>
<tspan x="10" y="1610">  │ └── esprima@3.1.3 </tspan>
<tspan x="10" y="1626">  ├─┬ nyc@10.2.0 </tspan>
<tspan x="10" y="1642">  │ ├── archy@1.0.0 </tspan>
<tspan x="10" y="1658">  │ ├── arrify@1.0.1 </tspan>
<tspan x="10" y="1674">  │ ├─┬ caching-transform@1.0.1 </tspan>
<tspan x="10" y="1690">  │ │ └─┬ write-file-atomic@1.3.1 </tspan>
<tspan x="10" y="1706">  │ │   ├── graceful-fs@4.1.11 </tspan>
<tspan x="10" y="1722">  │ │   ├── imurmurhash@0.1.4 </tspan>
<tspan x="10" y="1738">  │ │   └── slide@1.1.6 </tspan>
<tspan x="10" y="1754">  │ ├── convert-source-map@1.4.0 </tspan>
<tspan x="10" y="1770">  │ ├── debug-log@1.0.1 </tspan>
<tspan x="10" y="1786">  │ ├─┬ default-require-extensions@1.0.0 </tspan>
<tspan x="10" y="1802">  │ │ └─┬ strip-bom@2.0.0 </tspan>
<tspan x="10" y="1818">  │ │   └── is-utf8@0.2.1 </tspan>
<tspan x="10" y="1834">  │ ├─┬ find-cache-dir@0.1.1 </tspan>
<tspan x="10" y="1850">  │ │ ├── commondir@1.0.1 </tspan>
<tspan x="10" y="1866">  │ │ └── pkg-dir@1.0.0 </tspan>
<tspan x="10" y="1882">  │ ├─┬ find-up@1.1.2 </tspan>
<tspan x="10" y="1898">  │ │ ├── path-exists@2.1.0 </tspan>
<tspan x="10" y="1914">  │ │ └─┬ pinkie-promise@2.0.1 </tspan>
<tspan x="10" y="1930">  │ │   └── pinkie@2.0.4 </tspan>
<tspan x="10" y="1946">  │ ├─┬ foreground-child@1.5.6 </tspan>
<tspan x="10" y="1962">  │ │ └─┬ cross-spawn@4.0.2 </tspan>
<tspan x="10" y="1978">  │ │   └─┬ lru-cache@4.0.2 </tspan>
<tspan x="10" y="1994">  │ │     ├── pseudomap@1.0.2 </tspan>
<tspan x="10" y="2010">  │ │     └── yallist@2.1.2 </tspan>
<tspan x="10" y="2026">  │ ├─┬ glob@7.1.1 </tspan>
<tspan x="10" y="2042">  │ │ ├── fs.realpath@1.0.0 </tspan>
<tspan x="10" y="2058">  │ │ ├─┬ inflight@1.0.6 </tspan>
<tspan x="10" y="2074">  │ │ │ └── wrappy@1.0.2 </tspan>
<tspan x="10" y="2090">  │ │ ├── inherits@2.0.3 </tspan>
<tspan x="10" y="2106">  │ │ ├─┬ minimatch@3.0.3 </tspan>
<tspan x="10" y="2122">  │ │ │ └─┬ brace-expansion@1.1.6 </tspan>
<tspan x="10" y="2138">  │ │ │   ├── balanced-match@0.4.2 </tspan>
<tspan x="10" y="2154">  │ │ │   └── concat-map@0.0.1 </tspan>
<tspan x="10" y="2170">  │ │ ├── once@1.4.0 </tspan>
<tspan x="10" y="2186">  │ │ └── path-is-absolute@1.0.1 </tspan>
<tspan x="10" y="2202">  │ ├── istanbul-lib-coverage@1.0.2 </tspan>
<tspan x="10" y="2218">  │ ├─┬ istanbul-lib-hook@1.0.5 </tspan>
<tspan x="10" y="2234">  │ │ └── append-transform@0.4.0 </tspan>
<tspan x="10" y="2250">  │ ├─┬ istanbul-lib-instrument@1.7.0 </tspan>
<tspan x="10" y="2266">  │ │ ├─┬ babel-generator@6.24.0 </tspan>
<tspan x="10" y="2282">  │ │ │ ├── babel-messages@6.23.0 </tspan>
<tspan x="10" y="2298">  │ │ │ ├─┬ babel-runtime@6.23.0 </tspan>
<tspan x="10" y="2314">  │ │ │ │ ├── core-js@2.4.1 </tspan>
<tspan x="10" y="2330">  │ │ │ │ └── regenerator-runtime@0.10.3 </tspan>
<tspan x="10" y="2346">  │ │ │ ├─┬ detect-indent@4.0.0 </tspan>
<tspan x="10" y="2362">  │ │ │ │ └─┬ repeating@2.0.1 </tspan>
<tspan x="10" y="2378">  │ │ │ │   └── is-finite@1.0.2 </tspan>
<tspan x="10" y="2394">  │ │ │ ├── jsesc@1.3.0 </tspan>
<tspan x="10" y="2410">  │ │ │ ├── lodash@4.17.4 </tspan>
<tspan x="10" y="2426">  │ │ │ └── trim-right@1.0.1 </tspan>
<tspan x="10" y="2442">  │ │ ├── babel-template@6.23.0 </tspan>
<tspan x="10" y="2458">  │ │ ├─┬ babel-traverse@6.23.1 </tspan>
<tspan x="10" y="2474">  │ │ │ ├─┬ babel-code-frame@6.22.0 </tspan>
<tspan x="10" y="2490">  │ │ │ │ ├─┬ chalk@1.1.3 </tspan>
<tspan x="10" y="2506">  │ │ │ │ │ ├── ansi-styles@2.2.1 </tspan>
<tspan x="10" y="2522">  │ │ │ │ │ ├── escape-string-regexp@1.0.5 </tspan>
<tspan x="10" y="2538">  │ │ │ │ │ ├── has-ansi@2.0.0 </tspan>
<tspan x="10" y="2554">  │ │ │ │ │ └── supports-color@2.0.0 </tspan>
<tspan x="10" y="2570">  │ │ │ │ └── js-tokens@3.0.1 </tspan>
<tspan x="10" y="2586">  │ │ │ ├─┬ debug@2.6.3 </tspan>
<tspan x="10" y="2602">  │ │ │ │ └── ms@0.7.2 </tspan>
<tspan x="10" y="2618">  │ │ │ ├── globals@9.17.0 </tspan>
<tspan x="10" y="2634">  │ │ │ └─┬ invariant@2.2.2 </tspan>
<tspan x="10" y="2650">  │ │ │   └── loose-envify@1.3.1 </tspan>
<tspan x="10" y="2666">  │ │ ├─┬ babel-types@6.23.0 </tspan>
<tspan x="10" y="2682">  │ │ │ ├── esutils@2.0.2 </tspan>
<tspan x="10" y="2698">  │ │ │ └── to-fast-properties@1.0.2 </tspan>
<tspan x="10" y="2714">  │ │ ├── babylon@6.16.1 </tspan>
<tspan x="10" y="2730">  │ │ └── semver@5.3.0 </tspan>
<tspan x="10" y="2746">  │ ├─┬ istanbul-lib-report@1.0.0 </tspan>
<tspan x="10" y="2762">  │ │ ├── path-parse@1.0.5 </tspan>
<tspan x="10" y="2778">  │ │ └─┬ supports-color@3.2.3 </tspan>
<tspan x="10" y="2794">  │ │   └── has-flag@1.0.0 </tspan>
<tspan x="10" y="2810">  │ ├─┬ istanbul-lib-source-maps@1.1.1 </tspan>
<tspan x="10" y="2826">  │ │ └── source-map@0.5.6 </tspan>
<tspan x="10" y="2842">  │ ├─┬ istanbul-reports@1.0.2 </tspan>
<tspan x="10" y="2858">  │ │ └─┬ handlebars@4.0.6 </tspan>
<tspan x="10" y="2874">  │ │   ├── async@1.5.2 </tspan>
<tspan x="10" y="2890">  │ │   ├─┬ optimist@0.6.1 </tspan>
<tspan x="10" y="2906">  │ │   │ └── wordwrap@0.0.3 </tspan>
<tspan x="10" y="2922">  │ │   ├─┬ source-map@0.4.4 </tspan>
<tspan x="10" y="2938">  │ │   │ └── amdefine@1.0.1 </tspan>
<tspan x="10" y="2954">  │ │   └─┬ uglify-js@2.8.16 </tspan>
<tspan x="10" y="2970">  │ │     ├── uglify-to-browserify@1.0.2 </tspan>
<tspan x="10" y="2986">  │ │     └─┬ yargs@3.10.0 </tspan>
<tspan x="10" y="3002">  │ │       ├── camelcase@1.2.1 </tspan>
<tspan x="10" y="3018">  │ │       ├─┬ cliui@2.1.0 </tspan>
<tspan x="10" y="3034">  │ │       │ ├─┬ center-align@0.1.3 </tspan>
<tspan x="10" y="3050">  │ │       │ │ ├─┬ align-text@0.1.4 </tspan>
<tspan x="10" y="3066">  │ │       │ │ │ └── longest@1.0.1 </tspan>
<tspan x="10" y="3082">  │ │       │ │ └── lazy-cache@1.0.4 </tspan>
<tspan x="10" y="3098">  │ │       │ ├── right-align@0.1.3 </tspan>
<tspan x="10" y="3114">  │ │       │ └── wordwrap@0.0.2 </tspan>
<tspan x="10" y="3130">  │ │       └── window-size@0.1.0 </tspan>
<tspan x="10" y="3146">  │ ├─┬ md5-hex@1.3.0 </tspan>
<tspan x="10" y="3162">  │ │ └── md5-o-matic@0.1.1 </tspan>
<tspan x="10" y="3178">  │ ├── merge-source-map@1.0.3 </tspan>
<tspan x="10" y="3194">  │ ├─┬ micromatch@2.3.11 </tspan>
<tspan x="10" y="3210">  │ │ ├─┬ arr-diff@2.0.0 </tspan>
<tspan x="10" y="3226">  │ │ │ └── arr-flatten@1.0.1 </tspan>
<tspan x="10" y="3242">  │ │ ├── array-unique@0.2.1 </tspan>
<tspan x="10" y="3258">  │ │ ├─┬ braces@1.8.5 </tspan>
<tspan x="10" y="3274">  │ │ │ ├─┬ expand-range@1.8.2 </tspan>
<tspan x="10" y="3290">  │ │ │ │ └─┬ fill-range@2.2.3 </tspan>
<tspan x="10" y="3306">  │ │ │ │   ├── is-number@2.1.0 </tspan>
<tspan x="10" y="3322">  │ │ │ │   ├─┬ isobject@2.1.0 </tspan>
<tspan x="10" y="3338">  │ │ │ │   │ └── isarray@1.0.0 </tspan>
<tspan x="10" y="3354">  │ │ │ │   ├── randomatic@1.1.6 </tspan>
<tspan x="10" y="3370">  │ │ │ │   └── repeat-string@1.6.1 </tspan>
<tspan x="10" y="3386">  │ │ │ ├── preserve@0.2.0 </tspan>
<tspan x="10" y="3402">  │ │ │ └── repeat-element@1.1.2 </tspan>
<tspan x="10" y="3418">  │ │ ├─┬ expand-brackets@0.1.5 </tspan>
<tspan x="10" y="3434">  │ │ │ └── is-posix-bracket@0.1.1 </tspan>
<tspan x="10" y="3450">  │ │ ├── extglob@0.3.2 </tspan>
<tspan x="10" y="3466">  │ │ ├── filename-regex@2.0.0 </tspan>
<tspan x="10" y="3482">  │ │ ├── is-extglob@1.0.0 </tspan>
<tspan x="10" y="3498">  │ │ ├── is-glob@2.0.1 </tspan>
<tspan x="10" y="3514">  │ │ ├─┬ kind-of@3.1.0 </tspan>
<tspan x="10" y="3530">  │ │ │ └── is-buffer@1.1.5 </tspan>
<tspan x="10" y="3546">  │ │ ├── normalize-path@2.0.1 </tspan>
<tspan x="10" y="3562">  │ │ ├─┬ object.omit@2.0.1 </tspan>
<tspan x="10" y="3578">  │ │ │ ├─┬ for-own@0.1.5 </tspan>
<tspan x="10" y="3594">  │ │ │ │ └── for-in@1.0.2 </tspan>
<tspan x="10" y="3610">  │ │ │ └── is-extendable@0.1.1 </tspan>
<tspan x="10" y="3626">  │ │ ├─┬ parse-glob@3.0.4 </tspan>
<tspan x="10" y="3642">  │ │ │ ├─┬ glob-base@0.3.0 </tspan>
<tspan x="10" y="3658">  │ │ │ │ └── glob-parent@2.0.0 </tspan>
<tspan x="10" y="3674">  │ │ │ └── is-dotfile@1.0.2 </tspan>
<tspan x="10" y="3690">  │ │ └─┬ regex-cache@0.4.3 </tspan>
<tspan x="10" y="3706">  │ │   ├── is-equal-shallow@0.1.3 </tspan>
<tspan x="10" y="3722">  │ │   └── is-primitive@2.0.0 </tspan>
<tspan x="10" y="3738">  │ ├─┬ mkdirp@0.5.1 </tspan>
<tspan x="10" y="3754">  │ │ └── minimist@0.0.8 </tspan>
<tspan x="10" y="3770">  │ ├── resolve-from@2.0.0 </tspan>
<tspan x="10" y="3786">  │ ├── rimraf@2.6.1 </tspan>
<tspan x="10" y="3802">  │ ├── signal-exit@3.0.2 </tspan>
<tspan x="10" y="3818">  │ ├─┬ spawn-wrap@1.2.4 </tspan>
<tspan x="10" y="3834">  │ │ ├── os-homedir@1.0.2 </tspan>
<tspan x="10" y="3850">  │ │ ├── signal-exit@2.1.2 </tspan>
<tspan x="10" y="3866">  │ │ └─┬ which@1.2.14 </tspan>
<tspan x="10" y="3882">  │ │   └── isexe@2.0.0 </tspan>
<tspan x="10" y="3898">  │ ├─┬ test-exclude@4.0.3 </tspan>
<tspan x="10" y="3914">  │ │ ├── object-assign@4.1.1 </tspan>
<tspan x="10" y="3930">  │ │ ├─┬ read-pkg-up@1.0.1 </tspan>
<tspan x="10" y="3946">  │ │ │ └─┬ read-pkg@1.1.0 </tspan>
<tspan x="10" y="3962">  │ │ │   ├─┬ load-json-file@1.1.0 </tspan>
<tspan x="10" y="3978">  │ │ │   │ ├─┬ parse-json@2.2.0 </tspan>
<tspan x="10" y="3994">  │ │ │   │ │ └─┬ error-ex@1.3.1 </tspan>
<tspan x="10" y="4010">  │ │ │   │ │   └── is-arrayish@0.2.1 </tspan>
<tspan x="10" y="4026">  │ │ │   │ └── pify@2.3.0 </tspan>
<tspan x="10" y="4042">  │ │ │   ├─┬ normalize-package-data@2.3.6 </tspan>
<tspan x="10" y="4058">  │ │ │   │ ├── hosted-git-info@2.4.1 </tspan>
<tspan x="10" y="4074">  │ │ │   │ ├─┬ is-builtin-module@1.0.0 </tspan>
<tspan x="10" y="4090">  │ │ │   │ │ └── builtin-modules@1.1.1 </tspan>
<tspan x="10" y="4106">  │ │ │   │ └─┬ validate-npm-package-license@3.0.1 </tspan>
<tspan x="10" y="4122">  │ │ │   │   ├─┬ spdx-correct@1.0.2 </tspan>
<tspan x="10" y="4138">  │ │ │   │   │ └── spdx-license-ids@1.2.2 </tspan>
<tspan x="10" y="4154">  │ │ │   │   └── spdx-expression-parse@1.0.4 </tspan>
<tspan x="10" y="4170">  │ │ │   └── path-type@1.1.0 </tspan>
<tspan x="10" y="4186">  │ │ └── require-main-filename@1.0.1 </tspan>
<tspan x="10" y="4202">  │ ├─┬ yargs@7.0.2 </tspan>
<tspan x="10" y="4218">  │ │ ├── camelcase@3.0.0 </tspan>
<tspan x="10" y="4234">  │ │ ├─┬ cliui@3.2.0 </tspan>
<tspan x="10" y="4250">  │ │ │ └── wrap-ansi@2.1.0 </tspan>
<tspan x="10" y="4266">  │ │ ├── decamelize@1.2.0 </tspan>
<tspan x="10" y="4282">  │ │ ├── get-caller-file@1.0.2 </tspan>
<tspan x="10" y="4298">  │ │ ├─┬ os-locale@1.4.0 </tspan>
<tspan x="10" y="4314">  │ │ │ └─┬ lcid@1.0.0 </tspan>
<tspan x="10" y="4330">  │ │ │   └── invert-kv@1.0.0 </tspan>
<tspan x="10" y="4346">  │ │ ├── require-directory@2.1.1 </tspan>
<tspan x="10" y="4362">  │ │ ├── set-blocking@2.0.0 </tspan>
<tspan x="10" y="4378">  │ │ ├─┬ string-width@1.0.2 </tspan>
<tspan x="10" y="4394">  │ │ │ ├── code-point-at@1.1.0 </tspan>
<tspan x="10" y="4410">  │ │ │ ├─┬ is-fullwidth-code-point@1.0.0 </tspan>
<tspan x="10" y="4426">  │ │ │ │ └── number-is-nan@1.0.1 </tspan>
<tspan x="10" y="4442">  │ │ │ └─┬ strip-ansi@3.0.1 </tspan>
<tspan x="10" y="4458">  │ │ │   └── ansi-regex@2.1.1 </tspan>
<tspan x="10" y="4474">  │ │ ├── which-module@1.0.0 </tspan>
<tspan x="10" y="4490">  │ │ ├── y18n@3.2.1 </tspan>
<tspan x="10" y="4506">  │ │ └── yargs-parser@5.0.0 </tspan>
<tspan x="10" y="4522">  │ └─┬ yargs-parser@4.2.1 </tspan>
<tspan x="10" y="4538">  │   └── camelcase@3.0.0 </tspan>
<tspan x="10" y="4554">  ├── only-shallow@1.2.0 </tspan>
<tspan x="10" y="4570">  ├── opener@1.4.3 </tspan>
<tspan x="10" y="4586">  ├── os-homedir@1.0.1 </tspan>
<tspan x="10" y="4602">  ├── own-or@1.0.0 </tspan>
<tspan x="10" y="4618">  ├── own-or-env@1.0.0 </tspan>
<tspan x="10" y="4634">  ├─┬ readable-stream@2.2.9 </tspan>
<tspan x="10" y="4650">  │ ├── buffer-shims@1.0.0 </tspan>
<tspan x="10" y="4666">  │ ├── core-util-is@1.0.2 </tspan>
<tspan x="10" y="4682">  │ ├── isarray@1.0.0 </tspan>
<tspan x="10" y="4698">  │ ├── process-nextick-args@1.0.7 </tspan>
<tspan x="10" y="4714">  │ ├── string_decoder@1.0.0 </tspan>
<tspan x="10" y="4730">  │ └── util-deprecate@1.0.2 </tspan>
<tspan x="10" y="4746">  ├── signal-exit@3.0.2 </tspan>
<tspan x="10" y="4762">  ├─┬ source-map-support@0.4.14 </tspan>
<tspan x="10" y="4778">  │ └── source-map@0.5.6 </tspan>
<tspan x="10" y="4794">  ├── stack-utils@1.0.0 </tspan>
<tspan x="10" y="4810">  ├─┬ tap-mocha-reporter@3.0.3 </tspan>
<tspan x="10" y="4826">  │ ├─┬ debug@2.6.3 </tspan>
<tspan x="10" y="4842">  │ │ └── ms@0.7.2 </tspan>
<tspan x="10" y="4858">  │ ├── diff@1.4.0 </tspan>
<tspan x="10" y="4874">  │ ├── escape-string-regexp@1.0.5 </tspan>
<tspan x="10" y="4890">  │ └─┬ unicode-length@1.0.3 </tspan>
<tspan x="10" y="4906">  │   ├── punycode@1.4.1 </tspan>
<tspan x="10" y="4922">  │   └─┬ strip-ansi@3.0.1 </tspan>
<tspan x="10" y="4938">  │     └── ansi-regex@2.1.1 </tspan>
<tspan x="10" y="4954">  ├─┬ tap-parser@5.3.3 </tspan>
<tspan x="10" y="4970">  │ └── events-to-array@1.1.2 </tspan>
<tspan x="10" y="4986">  ├── tmatch@3.0.0 </tspan>
<tspan x="10" y="5002">  ├── trivial-deferred@1.0.1 </tspan>
<tspan x="10" y="5018">  └── yapool@1.0.0</tspan>
</text>
</svg>
